# xmcd CD database file
#
# Track frame offsets:
#	150
#	13632
#	30568
#	51309
#	68979
#	87549
#	107269
#	127640
#	144879
#	158964
#	170109
#	187870
#	208877
#	224060
#	240366
#
# Disc length: 3376 seconds
#
# Revision: 0
# Processed by: cddbd v1.5.2PL0 Copyright (c) Steve Scherf et al.
# Submitted via: ACXtractor (MTCDDB.DLL V2003.12.21)
#
DISCID=cd0d2e0f
DTITLE=High Country Band - Walk a Mile in my Cowboy Boots
DYEAR=2006
DGENRE=Country
TTITLE0=Teach Your Children
TTITLE1=Sloop John B
TTITLE2=The Best Things in Life are Free
TTITLE3=Designated Drinker
TTITLE4=Love them every Minute
TTITLE5=If Love was a River
TTITLE6=Dad
TTITLE7=All You Ever do is Bring Me Down
TTITLE8=Walk a Mile in my Cowboy Boots
TTITLE9=If I Can Make a Living out of Loving You
TTITLE10=I Want to Write You a Love Song
TTITLE11=Copperhead Road
TTITLE12=Crying Shame
TTITLE13=Don't Forget to Remember Me
TTITLE14=Clear Blue Sky
EXTD=ID3G:   2 YEAR: 2006
EXTT0=
EXTT1=
EXTT2=
EXTT3=
EXTT4=
EXTT5=
EXTT6=
EXTT7=
EXTT8=
EXTT9=
EXTT10=
EXTT11=
EXTT12=
EXTT13=
EXTT14=
PLAYORDER=
